# xmcd
# 
# Track frame offsets:
#     150
#     26915
#     41783
#     55789
#     84516
#     119067
#     132281
#     144929
#     163278
# 
# Disc length: 2406
# 
# Revision: 14
# Processed by: cddbd v1.5.2PL0 Copyright (c) Steve Scherf et al.
# Submitted via: fre:ac v1.0.31
# 
DISCID=81096409
DTITLE=Stevie Ray Vaughan - In The Beginning
DYEAR=1980
DGENRE=Blues
TTITLE0=In the Open
TTITLE1=Slide Thing
TTITLE2=They Call Me Guitar Hurricane
TTITLE3=All Your Love I Miss Loving
TTITLE4=Tin Pan Alley
TTITLE5=Love Struck Baby
TTITLE6=Tell Me
TTITLE7=Shake for Me
TTITLE8=Live Another Day
EXTD=YEAR: 1980
EXTT0=
EXTT1=
EXTT2=
EXTT3=
EXTT4=
EXTT5=
EXTT6=
EXTT7=
EXTT8=
PLAYORDER=
